<svg width="1613" height="651" viewBox="0 0 1613 651" fill="none" xmlns="http://www.w3.org/2000/svg">
<rect width="1613" height="651" fill="white"/>
<ellipse cx="826.5" cy="127" rx="115.5" ry="46" fill="#D9D9D9"/>
<path d="M774.295 137V113.727H778.511V123.58H789.295V113.727H793.523V137H789.295V127.114H778.511V137H774.295ZM818.903 125.364C818.903 127.871 818.434 130.019 817.494 131.807C816.563 133.587 815.29 134.951 813.676 135.898C812.07 136.845 810.248 137.318 808.21 137.318C806.172 137.318 804.347 136.845 802.733 135.898C801.127 134.943 799.854 133.576 798.915 131.795C797.983 130.008 797.517 127.864 797.517 125.364C797.517 122.856 797.983 120.712 798.915 118.932C799.854 117.144 801.127 115.777 802.733 114.83C804.347 113.883 806.172 113.409 808.21 113.409C810.248 113.409 812.07 113.883 813.676 114.83C815.29 115.777 816.563 117.144 817.494 118.932C818.434 120.712 818.903 122.856 818.903 125.364ZM814.665 125.364C814.665 123.598 814.388 122.11 813.835 120.898C813.29 119.678 812.532 118.758 811.562 118.136C810.593 117.508 809.475 117.193 808.21 117.193C806.945 117.193 805.828 117.508 804.858 118.136C803.888 118.758 803.127 119.678 802.574 120.898C802.028 122.11 801.756 123.598 801.756 125.364C801.756 127.129 802.028 128.621 802.574 129.841C803.127 131.053 803.888 131.973 804.858 132.602C805.828 133.223 806.945 133.534 808.21 133.534C809.475 133.534 810.593 133.223 811.562 132.602C812.532 131.973 813.29 131.053 813.835 129.841C814.388 128.621 814.665 127.129 814.665 125.364ZM822.889 113.727H828.048L834.957 130.591H835.23L842.139 113.727H847.298V137H843.253V121.011H843.037L836.605 136.932H833.582L827.151 120.977H826.935V137H822.889V113.727ZM851.889 137V113.727H867.026V117.261H856.105V123.58H866.241V127.114H856.105V133.466H867.116V137H851.889Z" fill="black"/>
<g filter="url(#filter0_d_604051_1771)">
<line x1="827" y1="173" x2="827" y2="249" stroke="black" stroke-width="2"/>
</g>
<line x1="189.998" y1="248" x2="1389" y2="245.993" stroke="black" stroke-width="2"/>
<path d="M188.277 291.69C188.658 292.09 189.291 292.105 189.69 291.723L196.201 285.509C196.6 285.128 196.615 284.495 196.234 284.095C195.852 283.696 195.219 283.681 194.82 284.062L189.033 289.586L183.509 283.799C183.128 283.4 182.495 283.385 182.095 283.766C181.696 284.148 181.681 284.781 182.062 285.18L188.277 291.69ZM189 247.977L188 290.977L190 291.023L191 248.023L189 247.977Z" fill="black"/>
<path d="M189 356V468" stroke="black" stroke-width="2"/>
<ellipse cx="186.5" cy="323.5" rx="114.5" ry="32.5" fill="#D9D9D9"/>
<path d="M125.42 311.727V335H121.67L110.705 319.148H110.511V335H106.295V311.727H110.068L121.023 327.591H121.227V311.727H125.42ZM137.56 335.341C135.81 335.341 134.298 334.977 133.026 334.25C131.76 333.515 130.787 332.477 130.105 331.136C129.423 329.788 129.082 328.201 129.082 326.375C129.082 324.58 129.423 323.004 130.105 321.648C130.795 320.284 131.757 319.223 132.991 318.466C134.226 317.701 135.677 317.318 137.344 317.318C138.42 317.318 139.435 317.492 140.389 317.841C141.351 318.182 142.2 318.712 142.935 319.432C143.677 320.152 144.26 321.068 144.685 322.182C145.109 323.288 145.321 324.606 145.321 326.136V327.398H131.014V324.625H141.378C141.37 323.837 141.2 323.136 140.866 322.523C140.533 321.902 140.067 321.413 139.469 321.057C138.878 320.701 138.188 320.523 137.401 320.523C136.56 320.523 135.821 320.727 135.185 321.136C134.548 321.538 134.052 322.068 133.696 322.727C133.348 323.379 133.17 324.095 133.162 324.875V327.295C133.162 328.311 133.348 329.182 133.719 329.909C134.09 330.629 134.609 331.182 135.276 331.568C135.942 331.947 136.723 332.136 137.616 332.136C138.215 332.136 138.757 332.053 139.241 331.886C139.726 331.712 140.147 331.458 140.503 331.125C140.859 330.792 141.128 330.379 141.31 329.886L145.151 330.318C144.908 331.333 144.446 332.22 143.764 332.977C143.09 333.727 142.226 334.311 141.173 334.727C140.12 335.136 138.916 335.341 137.56 335.341ZM152.31 335L147.378 317.545H151.571L154.639 329.818H154.798L157.935 317.545H162.082L165.219 329.75H165.389L168.412 317.545H172.616L167.673 335H163.389L160.116 323.205H159.878L156.605 335H152.31ZM186.597 335H182.097L190.29 311.727H195.494L203.699 335H199.199L192.983 316.5H192.801L186.597 335ZM186.744 325.875H199.017V329.261H186.744V325.875ZM206.582 335V317.545H210.571V320.455H210.753C211.071 319.447 211.616 318.67 212.389 318.125C213.17 317.572 214.06 317.295 215.06 317.295C215.287 317.295 215.541 317.307 215.821 317.33C216.109 317.345 216.348 317.371 216.537 317.409V321.193C216.363 321.133 216.086 321.08 215.707 321.034C215.336 320.981 214.976 320.955 214.628 320.955C213.878 320.955 213.204 321.117 212.605 321.443C212.014 321.761 211.548 322.205 211.207 322.773C210.866 323.341 210.696 323.996 210.696 324.739V335H206.582ZM219.27 335V317.545H223.384V335H219.27ZM221.338 315.068C220.687 315.068 220.126 314.852 219.656 314.42C219.187 313.981 218.952 313.455 218.952 312.841C218.952 312.22 219.187 311.693 219.656 311.261C220.126 310.822 220.687 310.602 221.338 310.602C221.997 310.602 222.558 310.822 223.02 311.261C223.49 311.693 223.724 312.22 223.724 312.841C223.724 313.455 223.49 313.981 223.02 314.42C222.558 314.852 221.997 315.068 221.338 315.068ZM243.205 317.545L236.989 335H232.443L226.227 317.545H230.614L234.625 330.511H234.807L238.83 317.545H243.205ZM250.574 335.352C249.468 335.352 248.472 335.155 247.585 334.761C246.706 334.36 246.009 333.769 245.494 332.989C244.987 332.208 244.733 331.246 244.733 330.102C244.733 329.117 244.915 328.303 245.278 327.659C245.642 327.015 246.138 326.5 246.767 326.114C247.396 325.727 248.104 325.436 248.892 325.239C249.688 325.034 250.509 324.886 251.358 324.795C252.381 324.689 253.21 324.595 253.847 324.511C254.483 324.42 254.945 324.284 255.233 324.102C255.528 323.913 255.676 323.621 255.676 323.227V323.159C255.676 322.303 255.422 321.64 254.915 321.17C254.407 320.701 253.676 320.466 252.722 320.466C251.714 320.466 250.915 320.686 250.324 321.125C249.741 321.564 249.347 322.083 249.142 322.682L245.301 322.136C245.604 321.076 246.104 320.189 246.801 319.477C247.498 318.758 248.35 318.22 249.358 317.864C250.366 317.5 251.479 317.318 252.699 317.318C253.54 317.318 254.377 317.417 255.21 317.614C256.044 317.811 256.805 318.136 257.494 318.591C258.184 319.038 258.737 319.648 259.153 320.42C259.578 321.193 259.79 322.159 259.79 323.318V335H255.835V332.602H255.699C255.449 333.087 255.097 333.542 254.642 333.966C254.195 334.383 253.631 334.72 252.949 334.977C252.275 335.227 251.483 335.352 250.574 335.352ZM251.642 332.33C252.468 332.33 253.184 332.167 253.79 331.841C254.396 331.508 254.862 331.068 255.188 330.523C255.521 329.977 255.688 329.383 255.688 328.739V326.682C255.559 326.788 255.339 326.886 255.028 326.977C254.725 327.068 254.384 327.148 254.006 327.216C253.627 327.284 253.252 327.345 252.881 327.398C252.509 327.451 252.188 327.496 251.915 327.534C251.301 327.617 250.752 327.754 250.267 327.943C249.782 328.133 249.4 328.398 249.119 328.739C248.839 329.072 248.699 329.504 248.699 330.034C248.699 330.792 248.975 331.364 249.528 331.75C250.081 332.136 250.786 332.33 251.642 332.33ZM268.04 311.727V335H263.926V311.727H268.04Z" fill="black"/>
<ellipse cx="826" cy="334.5" rx="104" ry="36.5" fill="#D9D9D9"/>
<path d="M761.511 319.727V343H757.295V319.727H761.511ZM770.009 332.773V343H765.895V325.545H769.827V328.511H770.031C770.433 327.534 771.073 326.758 771.952 326.182C772.838 325.606 773.933 325.318 775.236 325.318C776.44 325.318 777.49 325.576 778.384 326.091C779.285 326.606 779.982 327.352 780.474 328.33C780.974 329.307 781.221 330.492 781.213 331.886V343H777.099V332.523C777.099 331.356 776.796 330.443 776.19 329.784C775.592 329.125 774.762 328.795 773.702 328.795C772.982 328.795 772.342 328.955 771.781 329.273C771.228 329.583 770.793 330.034 770.474 330.625C770.164 331.216 770.009 331.932 770.009 332.773ZM794.236 325.545V328.727H783.918V325.545H794.236ZM786.497 343V323.898C786.497 322.723 786.74 321.746 787.224 320.966C787.717 320.186 788.376 319.602 789.202 319.216C790.027 318.83 790.944 318.636 791.952 318.636C792.664 318.636 793.296 318.693 793.849 318.807C794.402 318.92 794.812 319.023 795.077 319.114L794.259 322.295C794.084 322.242 793.865 322.189 793.599 322.136C793.334 322.076 793.039 322.045 792.713 322.045C791.948 322.045 791.406 322.231 791.088 322.602C790.777 322.966 790.622 323.489 790.622 324.17V343H786.497ZM804.415 343.341C802.71 343.341 801.233 342.966 799.983 342.216C798.733 341.466 797.763 340.417 797.074 339.068C796.392 337.72 796.051 336.144 796.051 334.341C796.051 332.538 796.392 330.958 797.074 329.602C797.763 328.246 798.733 327.193 799.983 326.443C801.233 325.693 802.71 325.318 804.415 325.318C806.119 325.318 807.597 325.693 808.847 326.443C810.097 327.193 811.063 328.246 811.744 329.602C812.434 330.958 812.778 332.538 812.778 334.341C812.778 336.144 812.434 337.72 811.744 339.068C811.063 340.417 810.097 341.466 808.847 342.216C807.597 342.966 806.119 343.341 804.415 343.341ZM804.438 340.045C805.362 340.045 806.134 339.792 806.756 339.284C807.377 338.769 807.839 338.08 808.142 337.216C808.453 336.352 808.608 335.39 808.608 334.33C808.608 333.261 808.453 332.295 808.142 331.432C807.839 330.561 807.377 329.867 806.756 329.352C806.134 328.837 805.362 328.58 804.438 328.58C803.491 328.58 802.703 328.837 802.074 329.352C801.453 329.867 800.987 330.561 800.676 331.432C800.373 332.295 800.222 333.261 800.222 334.33C800.222 335.39 800.373 336.352 800.676 337.216C800.987 338.08 801.453 338.769 802.074 339.284C802.703 339.792 803.491 340.045 804.438 340.045ZM823.366 323.261V319.727H841.935V323.261H834.741V343H830.56V323.261H823.366ZM850.528 343.341C848.778 343.341 847.267 342.977 845.994 342.25C844.729 341.515 843.756 340.477 843.074 339.136C842.392 337.788 842.051 336.201 842.051 334.375C842.051 332.58 842.392 331.004 843.074 329.648C843.763 328.284 844.725 327.223 845.96 326.466C847.195 325.701 848.646 325.318 850.312 325.318C851.388 325.318 852.403 325.492 853.358 325.841C854.32 326.182 855.169 326.712 855.903 327.432C856.646 328.152 857.229 329.068 857.653 330.182C858.078 331.288 858.29 332.606 858.29 334.136V335.398H843.983V332.625H854.347C854.339 331.837 854.169 331.136 853.835 330.523C853.502 329.902 853.036 329.413 852.438 329.057C851.847 328.701 851.157 328.523 850.369 328.523C849.528 328.523 848.79 328.727 848.153 329.136C847.517 329.538 847.021 330.068 846.665 330.727C846.316 331.379 846.138 332.095 846.131 332.875V335.295C846.131 336.311 846.316 337.182 846.688 337.909C847.059 338.629 847.578 339.182 848.244 339.568C848.911 339.947 849.691 340.136 850.585 340.136C851.184 340.136 851.725 340.053 852.21 339.886C852.695 339.712 853.116 339.458 853.472 339.125C853.828 338.792 854.097 338.379 854.278 337.886L858.119 338.318C857.877 339.333 857.415 340.22 856.733 340.977C856.059 341.727 855.195 342.311 854.142 342.727C853.089 343.136 851.884 343.341 850.528 343.341ZM869.384 343.341C867.641 343.341 866.145 342.958 864.895 342.193C863.652 341.428 862.694 340.371 862.02 339.023C861.353 337.667 861.02 336.106 861.02 334.341C861.02 332.568 861.361 331.004 862.043 329.648C862.724 328.284 863.687 327.223 864.929 326.466C866.179 325.701 867.656 325.318 869.361 325.318C870.777 325.318 872.031 325.58 873.122 326.102C874.221 326.617 875.096 327.348 875.747 328.295C876.399 329.235 876.77 330.333 876.861 331.591H872.929C872.77 330.75 872.391 330.049 871.793 329.489C871.202 328.92 870.41 328.636 869.418 328.636C868.577 328.636 867.838 328.864 867.202 329.318C866.565 329.765 866.069 330.409 865.713 331.25C865.365 332.091 865.19 333.098 865.19 334.273C865.19 335.462 865.365 336.485 865.713 337.341C866.062 338.189 866.55 338.845 867.179 339.307C867.815 339.761 868.562 339.989 869.418 339.989C870.024 339.989 870.565 339.875 871.043 339.648C871.527 339.413 871.933 339.076 872.259 338.636C872.584 338.197 872.808 337.663 872.929 337.034H876.861C876.762 338.269 876.399 339.364 875.77 340.318C875.141 341.265 874.285 342.008 873.202 342.545C872.118 343.076 870.846 343.341 869.384 343.341ZM884.352 332.773V343H880.239V319.727H884.261V328.511H884.466C884.875 327.527 885.508 326.75 886.364 326.182C887.227 325.606 888.326 325.318 889.659 325.318C890.871 325.318 891.928 325.572 892.83 326.08C893.731 326.587 894.428 327.33 894.92 328.307C895.42 329.284 895.67 330.477 895.67 331.886V343H891.557V332.523C891.557 331.348 891.254 330.436 890.648 329.784C890.049 329.125 889.208 328.795 888.125 328.795C887.398 328.795 886.746 328.955 886.17 329.273C885.602 329.583 885.155 330.034 884.83 330.625C884.511 331.216 884.352 331.932 884.352 332.773Z" fill="black"/>
<ellipse cx="539" cy="329.5" rx="110" ry="31.5" fill="#D9D9D9"/>
<path d="M456.284 339H451.784L459.977 315.727H465.182L473.386 339H468.886L462.67 320.5H462.489L456.284 339ZM456.432 329.875H468.705V333.261H456.432V329.875ZM480.384 315.727V339H476.27V315.727H480.384ZM488.727 315.727V339H484.614V315.727H488.727ZM501.077 339V315.727H505.293V335.466H515.543V339H501.077ZM524.043 339.352C522.937 339.352 521.94 339.155 521.054 338.761C520.175 338.36 519.478 337.769 518.963 336.989C518.455 336.208 518.202 335.246 518.202 334.102C518.202 333.117 518.384 332.303 518.747 331.659C519.111 331.015 519.607 330.5 520.236 330.114C520.865 329.727 521.573 329.436 522.361 329.239C523.156 329.034 523.978 328.886 524.827 328.795C525.849 328.689 526.679 328.595 527.315 328.511C527.952 328.42 528.414 328.284 528.702 328.102C528.997 327.913 529.145 327.621 529.145 327.227V327.159C529.145 326.303 528.891 325.64 528.384 325.17C527.876 324.701 527.145 324.466 526.19 324.466C525.183 324.466 524.384 324.686 523.793 325.125C523.209 325.564 522.815 326.083 522.611 326.682L518.77 326.136C519.073 325.076 519.573 324.189 520.27 323.477C520.967 322.758 521.819 322.22 522.827 321.864C523.834 321.5 524.948 321.318 526.168 321.318C527.009 321.318 527.846 321.417 528.679 321.614C529.512 321.811 530.274 322.136 530.963 322.591C531.652 323.038 532.205 323.648 532.622 324.42C533.046 325.193 533.259 326.159 533.259 327.318V339H529.304V336.602H529.168C528.918 337.087 528.565 337.542 528.111 337.966C527.664 338.383 527.099 338.72 526.418 338.977C525.743 339.227 524.952 339.352 524.043 339.352ZM525.111 336.33C525.937 336.33 526.652 336.167 527.259 335.841C527.865 335.508 528.33 335.068 528.656 334.523C528.99 333.977 529.156 333.383 529.156 332.739V330.682C529.027 330.788 528.808 330.886 528.497 330.977C528.194 331.068 527.853 331.148 527.474 331.216C527.096 331.284 526.721 331.345 526.349 331.398C525.978 331.451 525.656 331.496 525.384 331.534C524.77 331.617 524.221 331.754 523.736 331.943C523.251 332.133 522.868 332.398 522.588 332.739C522.308 333.072 522.168 333.504 522.168 334.034C522.168 334.792 522.444 335.364 522.997 335.75C523.55 336.136 524.255 336.33 525.111 336.33ZM537.395 345.545V321.545H541.44V324.432H541.679C541.891 324.008 542.19 323.557 542.577 323.08C542.963 322.595 543.486 322.182 544.145 321.841C544.804 321.492 545.645 321.318 546.668 321.318C548.016 321.318 549.232 321.663 550.315 322.352C551.406 323.034 552.27 324.045 552.906 325.386C553.55 326.72 553.872 328.356 553.872 330.295C553.872 332.212 553.558 333.841 552.929 335.182C552.3 336.523 551.444 337.545 550.361 338.25C549.277 338.955 548.05 339.307 546.679 339.307C545.679 339.307 544.849 339.14 544.19 338.807C543.531 338.473 543.001 338.072 542.599 337.602C542.205 337.125 541.899 336.674 541.679 336.25H541.509V345.545H537.395ZM541.429 330.273C541.429 331.402 541.588 332.39 541.906 333.239C542.232 334.087 542.698 334.75 543.304 335.227C543.918 335.697 544.66 335.932 545.531 335.932C546.44 335.932 547.202 335.689 547.815 335.205C548.429 334.712 548.891 334.042 549.202 333.193C549.52 332.337 549.679 331.364 549.679 330.273C549.679 329.189 549.524 328.227 549.213 327.386C548.902 326.545 548.44 325.886 547.827 325.409C547.213 324.932 546.448 324.693 545.531 324.693C544.652 324.693 543.906 324.924 543.293 325.386C542.679 325.848 542.213 326.496 541.895 327.33C541.584 328.163 541.429 329.144 541.429 330.273ZM566.111 321.545V324.727H556.077V321.545H566.111ZM558.554 317.364H562.668V333.75C562.668 334.303 562.751 334.727 562.918 335.023C563.092 335.311 563.319 335.508 563.599 335.614C563.88 335.72 564.19 335.773 564.531 335.773C564.789 335.773 565.024 335.754 565.236 335.716C565.455 335.678 565.622 335.644 565.736 335.614L566.429 338.83C566.209 338.905 565.895 338.989 565.486 339.08C565.084 339.17 564.592 339.223 564.009 339.239C562.978 339.269 562.05 339.114 561.224 338.773C560.399 338.424 559.743 337.886 559.259 337.159C558.781 336.432 558.546 335.523 558.554 334.432V317.364ZM576.977 339.341C575.273 339.341 573.795 338.966 572.545 338.216C571.295 337.466 570.326 336.417 569.636 335.068C568.955 333.72 568.614 332.144 568.614 330.341C568.614 328.538 568.955 326.958 569.636 325.602C570.326 324.246 571.295 323.193 572.545 322.443C573.795 321.693 575.273 321.318 576.977 321.318C578.682 321.318 580.159 321.693 581.409 322.443C582.659 323.193 583.625 324.246 584.307 325.602C584.996 326.958 585.341 328.538 585.341 330.341C585.341 332.144 584.996 333.72 584.307 335.068C583.625 336.417 582.659 337.466 581.409 338.216C580.159 338.966 578.682 339.341 576.977 339.341ZM577 336.045C577.924 336.045 578.697 335.792 579.318 335.284C579.939 334.769 580.402 334.08 580.705 333.216C581.015 332.352 581.17 331.39 581.17 330.33C581.17 329.261 581.015 328.295 580.705 327.432C580.402 326.561 579.939 325.867 579.318 325.352C578.697 324.837 577.924 324.58 577 324.58C576.053 324.58 575.265 324.837 574.636 325.352C574.015 325.867 573.549 326.561 573.239 327.432C572.936 328.295 572.784 329.261 572.784 330.33C572.784 331.39 572.936 332.352 573.239 333.216C573.549 334.08 574.015 334.769 574.636 335.284C575.265 335.792 576.053 336.045 577 336.045ZM588.832 345.545V321.545H592.878V324.432H593.116C593.329 324.008 593.628 323.557 594.014 323.08C594.401 322.595 594.923 322.182 595.582 321.841C596.241 321.492 597.082 321.318 598.105 321.318C599.454 321.318 600.67 321.663 601.753 322.352C602.844 323.034 603.707 324.045 604.344 325.386C604.988 326.72 605.31 328.356 605.31 330.295C605.31 332.212 604.995 333.841 604.366 335.182C603.738 336.523 602.882 337.545 601.798 338.25C600.715 338.955 599.488 339.307 598.116 339.307C597.116 339.307 596.287 339.14 595.628 338.807C594.969 338.473 594.438 338.072 594.037 337.602C593.643 337.125 593.336 336.674 593.116 336.25H592.946V345.545H588.832ZM592.866 330.273C592.866 331.402 593.026 332.39 593.344 333.239C593.67 334.087 594.135 334.75 594.741 335.227C595.355 335.697 596.098 335.932 596.969 335.932C597.878 335.932 598.639 335.689 599.253 335.205C599.866 334.712 600.329 334.042 600.639 333.193C600.957 332.337 601.116 331.364 601.116 330.273C601.116 329.189 600.961 328.227 600.651 327.386C600.34 326.545 599.878 325.886 599.264 325.409C598.651 324.932 597.885 324.693 596.969 324.693C596.09 324.693 595.344 324.924 594.73 325.386C594.116 325.848 593.651 326.496 593.332 327.33C593.022 328.163 592.866 329.144 592.866 330.273ZM622.628 326.159L618.878 326.568C618.772 326.189 618.586 325.833 618.321 325.5C618.063 325.167 617.715 324.898 617.276 324.693C616.836 324.489 616.298 324.386 615.662 324.386C614.806 324.386 614.086 324.572 613.503 324.943C612.927 325.314 612.643 325.795 612.651 326.386C612.643 326.894 612.829 327.307 613.207 327.625C613.594 327.943 614.23 328.205 615.116 328.409L618.094 329.045C619.745 329.402 620.973 329.966 621.776 330.739C622.586 331.511 622.995 332.523 623.003 333.773C622.995 334.871 622.673 335.841 622.037 336.682C621.408 337.515 620.533 338.167 619.412 338.636C618.291 339.106 617.003 339.341 615.548 339.341C613.412 339.341 611.692 338.894 610.389 338C609.086 337.098 608.31 335.845 608.06 334.239L612.071 333.852C612.253 334.64 612.639 335.235 613.23 335.636C613.821 336.038 614.59 336.239 615.537 336.239C616.514 336.239 617.298 336.038 617.889 335.636C618.488 335.235 618.787 334.739 618.787 334.148C618.787 333.648 618.594 333.235 618.207 332.909C617.829 332.583 617.238 332.333 616.435 332.159L613.457 331.534C611.783 331.186 610.545 330.598 609.741 329.773C608.938 328.939 608.541 327.886 608.548 326.614C608.541 325.538 608.832 324.606 609.423 323.818C610.022 323.023 610.851 322.409 611.912 321.977C612.98 321.538 614.211 321.318 615.605 321.318C617.651 321.318 619.26 321.754 620.435 322.625C621.616 323.496 622.348 324.674 622.628 326.159Z" fill="black"/>
<ellipse cx="1122" cy="330" rx="115" ry="34" fill="#D9D9D9"/>
<path d="M1058.28 343H1053.78L1061.98 319.727H1067.18L1075.39 343H1070.89L1064.67 324.5H1064.49L1058.28 343ZM1058.43 333.875H1070.7V337.261H1058.43V333.875ZM1078.45 343V319.727H1082.57V328.432H1082.74C1082.95 328.008 1083.25 327.557 1083.63 327.08C1084.02 326.595 1084.54 326.182 1085.2 325.841C1085.86 325.492 1086.7 325.318 1087.72 325.318C1089.07 325.318 1090.29 325.663 1091.37 326.352C1092.46 327.034 1093.33 328.045 1093.96 329.386C1094.61 330.72 1094.93 332.356 1094.93 334.295C1094.93 336.212 1094.61 337.841 1093.99 339.182C1093.36 340.523 1092.5 341.545 1091.42 342.25C1090.33 342.955 1089.11 343.307 1087.74 343.307C1086.74 343.307 1085.91 343.14 1085.25 342.807C1084.59 342.473 1084.06 342.072 1083.66 341.602C1083.26 341.125 1082.96 340.674 1082.74 340.25H1082.5V343H1078.45ZM1082.49 334.273C1082.49 335.402 1082.64 336.39 1082.96 337.239C1083.29 338.087 1083.75 338.75 1084.36 339.227C1084.97 339.697 1085.72 339.932 1086.59 339.932C1087.5 339.932 1088.26 339.689 1088.87 339.205C1089.49 338.712 1089.95 338.042 1090.26 337.193C1090.58 336.337 1090.74 335.364 1090.74 334.273C1090.74 333.189 1090.58 332.227 1090.27 331.386C1089.96 330.545 1089.5 329.886 1088.88 329.409C1088.27 328.932 1087.5 328.693 1086.59 328.693C1085.71 328.693 1084.96 328.924 1084.35 329.386C1083.74 329.848 1083.27 330.496 1082.95 331.33C1082.64 332.163 1082.49 333.144 1082.49 334.273ZM1106.04 343.341C1104.34 343.341 1102.86 342.966 1101.61 342.216C1100.36 341.466 1099.39 340.417 1098.7 339.068C1098.02 337.72 1097.68 336.144 1097.68 334.341C1097.68 332.538 1098.02 330.958 1098.7 329.602C1099.39 328.246 1100.36 327.193 1101.61 326.443C1102.86 325.693 1104.34 325.318 1106.04 325.318C1107.74 325.318 1109.22 325.693 1110.47 326.443C1111.72 327.193 1112.69 328.246 1113.37 329.602C1114.06 330.958 1114.4 332.538 1114.4 334.341C1114.4 336.144 1114.06 337.72 1113.37 339.068C1112.69 340.417 1111.72 341.466 1110.47 342.216C1109.22 342.966 1107.74 343.341 1106.04 343.341ZM1106.06 340.045C1106.99 340.045 1107.76 339.792 1108.38 339.284C1109 338.769 1109.46 338.08 1109.77 337.216C1110.08 336.352 1110.23 335.39 1110.23 334.33C1110.23 333.261 1110.08 332.295 1109.77 331.432C1109.46 330.561 1109 329.867 1108.38 329.352C1107.76 328.837 1106.99 328.58 1106.06 328.58C1105.12 328.58 1104.33 328.837 1103.7 329.352C1103.08 329.867 1102.61 330.561 1102.3 331.432C1102 332.295 1101.85 333.261 1101.85 334.33C1101.85 335.39 1102 336.352 1102.3 337.216C1102.61 338.08 1103.08 338.769 1103.7 339.284C1104.33 339.792 1105.12 340.045 1106.06 340.045ZM1129.02 335.659V325.545H1133.13V343H1129.14V339.898H1128.96C1128.57 340.875 1127.92 341.674 1127.02 342.295C1126.13 342.917 1125.02 343.227 1123.71 343.227C1122.57 343.227 1121.56 342.973 1120.68 342.466C1119.81 341.951 1119.13 341.205 1118.63 340.227C1118.14 339.242 1117.89 338.053 1117.89 336.659V325.545H1122.01V336.023C1122.01 337.129 1122.31 338.008 1122.92 338.659C1123.52 339.311 1124.32 339.636 1125.3 339.636C1125.91 339.636 1126.5 339.489 1127.07 339.193C1127.63 338.898 1128.1 338.458 1128.46 337.875C1128.83 337.284 1129.02 336.545 1129.02 335.659ZM1146.08 325.545V328.727H1136.05V325.545H1146.08ZM1138.52 321.364H1142.64V337.75C1142.64 338.303 1142.72 338.727 1142.89 339.023C1143.06 339.311 1143.29 339.508 1143.57 339.614C1143.85 339.72 1144.16 339.773 1144.5 339.773C1144.76 339.773 1144.99 339.754 1145.2 339.716C1145.42 339.678 1145.59 339.644 1145.7 339.614L1146.4 342.83C1146.18 342.905 1145.86 342.989 1145.45 343.08C1145.05 343.17 1144.56 343.223 1143.98 343.239C1142.95 343.269 1142.02 343.114 1141.19 342.773C1140.37 342.424 1139.71 341.886 1139.23 341.159C1138.75 340.432 1138.52 339.523 1138.52 338.432V321.364ZM1172.31 319.727H1176.53V334.932C1176.53 336.598 1176.13 338.064 1175.34 339.33C1174.56 340.595 1173.46 341.583 1172.05 342.295C1170.63 343 1168.98 343.352 1167.08 343.352C1165.18 343.352 1163.52 343 1162.11 342.295C1160.69 341.583 1159.59 340.595 1158.81 339.33C1158.03 338.064 1157.64 336.598 1157.64 334.932V319.727H1161.86V334.58C1161.86 335.549 1162.07 336.413 1162.49 337.17C1162.92 337.928 1163.53 338.523 1164.31 338.955C1165.09 339.379 1166.01 339.591 1167.08 339.591C1168.15 339.591 1169.07 339.379 1169.86 338.955C1170.64 338.523 1171.25 337.928 1171.67 337.17C1172.1 336.413 1172.31 335.549 1172.31 334.58V319.727ZM1194.72 330.159L1190.97 330.568C1190.87 330.189 1190.68 329.833 1190.41 329.5C1190.16 329.167 1189.81 328.898 1189.37 328.693C1188.93 328.489 1188.39 328.386 1187.76 328.386C1186.9 328.386 1186.18 328.572 1185.6 328.943C1185.02 329.314 1184.74 329.795 1184.74 330.386C1184.74 330.894 1184.92 331.307 1185.3 331.625C1185.69 331.943 1186.32 332.205 1187.21 332.409L1190.19 333.045C1191.84 333.402 1193.07 333.966 1193.87 334.739C1194.68 335.511 1195.09 336.523 1195.1 337.773C1195.09 338.871 1194.77 339.841 1194.13 340.682C1193.5 341.515 1192.63 342.167 1191.51 342.636C1190.38 343.106 1189.1 343.341 1187.64 343.341C1185.51 343.341 1183.79 342.894 1182.48 342C1181.18 341.098 1180.4 339.845 1180.15 338.239L1184.16 337.852C1184.35 338.64 1184.73 339.235 1185.32 339.636C1185.91 340.038 1186.68 340.239 1187.63 340.239C1188.61 340.239 1189.39 340.038 1189.98 339.636C1190.58 339.235 1190.88 338.739 1190.88 338.148C1190.88 337.648 1190.69 337.235 1190.3 336.909C1189.92 336.583 1189.33 336.333 1188.53 336.159L1185.55 335.534C1183.88 335.186 1182.64 334.598 1181.84 333.773C1181.03 332.939 1180.63 331.886 1180.64 330.614C1180.63 329.538 1180.93 328.606 1181.52 327.818C1182.12 327.023 1182.95 326.409 1184.01 325.977C1185.07 325.538 1186.3 325.318 1187.7 325.318C1189.74 325.318 1191.35 325.754 1192.53 326.625C1193.71 327.496 1194.44 328.674 1194.72 330.159Z" fill="black"/>
<ellipse cx="1384.5" cy="338" rx="111.5" ry="37" fill="#D9D9D9"/>
<path d="M1326.22 334.58H1321.97C1321.84 333.883 1321.62 333.265 1321.3 332.727C1320.97 332.182 1320.56 331.72 1320.08 331.341C1319.59 330.962 1319.04 330.678 1318.42 330.489C1317.81 330.292 1317.14 330.193 1316.43 330.193C1315.17 330.193 1314.05 330.511 1313.07 331.148C1312.09 331.777 1311.33 332.701 1310.77 333.92C1310.22 335.133 1309.94 336.614 1309.94 338.364C1309.94 340.144 1310.22 341.644 1310.77 342.864C1311.33 344.076 1312.1 344.992 1313.07 345.614C1314.05 346.227 1315.16 346.534 1316.42 346.534C1317.12 346.534 1317.77 346.443 1318.38 346.261C1318.99 346.072 1319.54 345.795 1320.02 345.432C1320.52 345.068 1320.93 344.621 1321.26 344.091C1321.6 343.561 1321.84 342.955 1321.97 342.273L1326.22 342.295C1326.06 343.402 1325.71 344.439 1325.18 345.409C1324.66 346.379 1323.97 347.235 1323.12 347.977C1322.28 348.712 1321.28 349.288 1320.15 349.705C1319.01 350.114 1317.75 350.318 1316.36 350.318C1314.32 350.318 1312.49 349.845 1310.89 348.898C1309.28 347.951 1308.02 346.583 1307.09 344.795C1306.17 343.008 1305.7 340.864 1305.7 338.364C1305.7 335.856 1306.17 333.712 1307.1 331.932C1308.03 330.144 1309.3 328.777 1310.91 327.83C1312.52 326.883 1314.33 326.409 1316.36 326.409C1317.66 326.409 1318.86 326.591 1319.98 326.955C1321.09 327.318 1322.08 327.852 1322.95 328.557C1323.83 329.254 1324.54 330.11 1325.1 331.125C1325.67 332.133 1326.04 333.284 1326.22 334.58ZM1337.51 350.341C1335.8 350.341 1334.33 349.966 1333.08 349.216C1331.83 348.466 1330.86 347.417 1330.17 346.068C1329.49 344.72 1329.14 343.144 1329.14 341.341C1329.14 339.538 1329.49 337.958 1330.17 336.602C1330.86 335.246 1331.83 334.193 1333.08 333.443C1334.33 332.693 1335.8 332.318 1337.51 332.318C1339.21 332.318 1340.69 332.693 1341.94 333.443C1343.19 334.193 1344.16 335.246 1344.84 336.602C1345.53 337.958 1345.87 339.538 1345.87 341.341C1345.87 343.144 1345.53 344.72 1344.84 346.068C1344.16 347.417 1343.19 348.466 1341.94 349.216C1340.69 349.966 1339.21 350.341 1337.51 350.341ZM1337.53 347.045C1338.46 347.045 1339.23 346.792 1339.85 346.284C1340.47 345.769 1340.93 345.08 1341.24 344.216C1341.55 343.352 1341.7 342.39 1341.7 341.33C1341.7 340.261 1341.55 339.295 1341.24 338.432C1340.93 337.561 1340.47 336.867 1339.85 336.352C1339.23 335.837 1338.46 335.58 1337.53 335.58C1336.58 335.58 1335.8 335.837 1335.17 336.352C1334.55 336.867 1334.08 337.561 1333.77 338.432C1333.47 339.295 1333.32 340.261 1333.32 341.33C1333.32 342.39 1333.47 343.352 1333.77 344.216C1334.08 345.08 1334.55 345.769 1335.17 346.284C1335.8 346.792 1336.58 347.045 1337.53 347.045ZM1353.48 339.773V350H1349.36V332.545H1353.3V335.511H1353.5C1353.9 334.534 1354.54 333.758 1355.42 333.182C1356.31 332.606 1357.4 332.318 1358.7 332.318C1359.91 332.318 1360.96 332.576 1361.85 333.091C1362.75 333.606 1363.45 334.352 1363.94 335.33C1364.44 336.307 1364.69 337.492 1364.68 338.886V350H1360.57V339.523C1360.57 338.356 1360.27 337.443 1359.66 336.784C1359.06 336.125 1358.23 335.795 1357.17 335.795C1356.45 335.795 1355.81 335.955 1355.25 336.273C1354.7 336.583 1354.26 337.034 1353.94 337.625C1353.63 338.216 1353.48 338.932 1353.48 339.773ZM1377.58 332.545V335.727H1367.55V332.545H1377.58ZM1370.02 328.364H1374.14V344.75C1374.14 345.303 1374.22 345.727 1374.39 346.023C1374.56 346.311 1374.79 346.508 1375.07 346.614C1375.35 346.72 1375.66 346.773 1376 346.773C1376.26 346.773 1376.49 346.754 1376.7 346.716C1376.92 346.678 1377.09 346.644 1377.2 346.614L1377.9 349.83C1377.68 349.905 1377.36 349.989 1376.95 350.08C1376.55 350.17 1376.06 350.223 1375.48 350.239C1374.45 350.269 1373.52 350.114 1372.69 349.773C1371.87 349.424 1371.21 348.886 1370.73 348.159C1370.25 347.432 1370.02 346.523 1370.02 345.432V328.364ZM1386.04 350.352C1384.94 350.352 1383.94 350.155 1383.05 349.761C1382.18 349.36 1381.48 348.769 1380.96 347.989C1380.46 347.208 1380.2 346.246 1380.2 345.102C1380.2 344.117 1380.38 343.303 1380.75 342.659C1381.11 342.015 1381.61 341.5 1382.24 341.114C1382.86 340.727 1383.57 340.436 1384.36 340.239C1385.16 340.034 1385.98 339.886 1386.83 339.795C1387.85 339.689 1388.68 339.595 1389.32 339.511C1389.95 339.42 1390.41 339.284 1390.7 339.102C1391 338.913 1391.14 338.621 1391.14 338.227V338.159C1391.14 337.303 1390.89 336.64 1390.38 336.17C1389.88 335.701 1389.14 335.466 1388.19 335.466C1387.18 335.466 1386.38 335.686 1385.79 336.125C1385.21 336.564 1384.82 337.083 1384.61 337.682L1380.77 337.136C1381.07 336.076 1381.57 335.189 1382.27 334.477C1382.97 333.758 1383.82 333.22 1384.83 332.864C1385.83 332.5 1386.95 332.318 1388.17 332.318C1389.01 332.318 1389.85 332.417 1390.68 332.614C1391.51 332.811 1392.27 333.136 1392.96 333.591C1393.65 334.038 1394.21 334.648 1394.62 335.42C1395.05 336.193 1395.26 337.159 1395.26 338.318V350H1391.3V347.602H1391.17C1390.92 348.087 1390.57 348.542 1390.11 348.966C1389.66 349.383 1389.1 349.72 1388.42 349.977C1387.74 350.227 1386.95 350.352 1386.04 350.352ZM1387.11 347.33C1387.94 347.33 1388.65 347.167 1389.26 346.841C1389.86 346.508 1390.33 346.068 1390.66 345.523C1390.99 344.977 1391.16 344.383 1391.16 343.739V341.682C1391.03 341.788 1390.81 341.886 1390.5 341.977C1390.19 342.068 1389.85 342.148 1389.47 342.216C1389.1 342.284 1388.72 342.345 1388.35 342.398C1387.98 342.451 1387.66 342.496 1387.38 342.534C1386.77 342.617 1386.22 342.754 1385.74 342.943C1385.25 343.133 1384.87 343.398 1384.59 343.739C1384.31 344.072 1384.17 344.504 1384.17 345.034C1384.17 345.792 1384.44 346.364 1385 346.75C1385.55 347.136 1386.25 347.33 1387.11 347.33ZM1407.01 350.341C1405.27 350.341 1403.77 349.958 1402.52 349.193C1401.28 348.428 1400.32 347.371 1399.64 346.023C1398.98 344.667 1398.64 343.106 1398.64 341.341C1398.64 339.568 1398.99 338.004 1399.67 336.648C1400.35 335.284 1401.31 334.223 1402.55 333.466C1403.8 332.701 1405.28 332.318 1406.99 332.318C1408.4 332.318 1409.66 332.58 1410.75 333.102C1411.85 333.617 1412.72 334.348 1413.37 335.295C1414.02 336.235 1414.39 337.333 1414.49 338.591H1410.55C1410.39 337.75 1410.02 337.049 1409.42 336.489C1408.83 335.92 1408.04 335.636 1407.04 335.636C1406.2 335.636 1405.46 335.864 1404.83 336.318C1404.19 336.765 1403.69 337.409 1403.34 338.25C1402.99 339.091 1402.82 340.098 1402.82 341.273C1402.82 342.462 1402.99 343.485 1403.34 344.341C1403.69 345.189 1404.18 345.845 1404.8 346.307C1405.44 346.761 1406.19 346.989 1407.04 346.989C1407.65 346.989 1408.19 346.875 1408.67 346.648C1409.15 346.413 1409.56 346.076 1409.88 345.636C1410.21 345.197 1410.43 344.663 1410.55 344.034H1414.49C1414.39 345.269 1414.02 346.364 1413.39 347.318C1412.77 348.265 1411.91 349.008 1410.83 349.545C1409.74 350.076 1408.47 350.341 1407.01 350.341ZM1426.58 332.545V335.727H1416.55V332.545H1426.58ZM1419.02 328.364H1423.14V344.75C1423.14 345.303 1423.22 345.727 1423.39 346.023C1423.56 346.311 1423.79 346.508 1424.07 346.614C1424.35 346.72 1424.66 346.773 1425 346.773C1425.26 346.773 1425.49 346.754 1425.7 346.716C1425.92 346.678 1426.09 346.644 1426.2 346.614L1426.9 349.83C1426.68 349.905 1426.36 349.989 1425.95 350.08C1425.55 350.17 1425.06 350.223 1424.48 350.239C1423.45 350.269 1422.52 350.114 1421.69 349.773C1420.87 349.424 1420.21 348.886 1419.73 348.159C1419.25 347.432 1419.02 346.523 1419.02 345.432V328.364ZM1449.08 342.659V332.545H1453.2V350H1449.21V346.898H1449.03C1448.63 347.875 1447.98 348.674 1447.08 349.295C1446.19 349.917 1445.09 350.227 1443.78 350.227C1442.63 350.227 1441.62 349.973 1440.74 349.466C1439.87 348.951 1439.19 348.205 1438.7 347.227C1438.2 346.242 1437.96 345.053 1437.96 343.659V332.545H1442.07V343.023C1442.07 344.129 1442.37 345.008 1442.98 345.659C1443.59 346.311 1444.38 346.636 1445.37 346.636C1445.97 346.636 1446.56 346.489 1447.13 346.193C1447.7 345.898 1448.16 345.458 1448.53 344.875C1448.9 344.284 1449.08 343.545 1449.08 342.659ZM1471.22 337.159L1467.47 337.568C1467.37 337.189 1467.18 336.833 1466.91 336.5C1466.66 336.167 1466.31 335.898 1465.87 335.693C1465.43 335.489 1464.89 335.386 1464.26 335.386C1463.4 335.386 1462.68 335.572 1462.1 335.943C1461.52 336.314 1461.24 336.795 1461.24 337.386C1461.24 337.894 1461.42 338.307 1461.8 338.625C1462.19 338.943 1462.82 339.205 1463.71 339.409L1466.69 340.045C1468.34 340.402 1469.57 340.966 1470.37 341.739C1471.18 342.511 1471.59 343.523 1471.6 344.773C1471.59 345.871 1471.27 346.841 1470.63 347.682C1470 348.515 1469.13 349.167 1468.01 349.636C1466.88 350.106 1465.6 350.341 1464.14 350.341C1462.01 350.341 1460.29 349.894 1458.98 349C1457.68 348.098 1456.9 346.845 1456.65 345.239L1460.66 344.852C1460.85 345.64 1461.23 346.235 1461.82 346.636C1462.41 347.038 1463.18 347.239 1464.13 347.239C1465.11 347.239 1465.89 347.038 1466.48 346.636C1467.08 346.235 1467.38 345.739 1467.38 345.148C1467.38 344.648 1467.19 344.235 1466.8 343.909C1466.42 343.583 1465.83 343.333 1465.03 343.159L1462.05 342.534C1460.38 342.186 1459.14 341.598 1458.34 340.773C1457.53 339.939 1457.13 338.886 1457.14 337.614C1457.13 336.538 1457.43 335.606 1458.02 334.818C1458.62 334.023 1459.45 333.409 1460.51 332.977C1461.57 332.538 1462.8 332.318 1464.2 332.318C1466.24 332.318 1467.85 332.754 1469.03 333.625C1470.21 334.496 1470.94 335.674 1471.22 337.159Z" fill="black"/>
<path d="M538.293 301.707C538.683 302.098 539.317 302.098 539.707 301.707L546.071 295.343C546.462 294.953 546.462 294.319 546.071 293.929C545.681 293.538 545.047 293.538 544.657 293.929L539 299.586L533.343 293.929C532.953 293.538 532.319 293.538 531.929 293.929C531.538 294.319 531.538 294.953 531.929 295.343L538.293 301.707ZM538 248V301H540V248H538Z" fill="black"/>
<path d="M825.293 301.707C825.683 302.098 826.317 302.098 826.707 301.707L833.071 295.343C833.462 294.953 833.462 294.319 833.071 293.929C832.681 293.538 832.047 293.538 831.657 293.929L826 299.586L820.343 293.929C819.953 293.538 819.319 293.538 818.929 293.929C818.538 294.319 818.538 294.953 818.929 295.343L825.293 301.707ZM825 248V301H827V248H825Z" fill="black"/>
<path d="M1109.31 296.722C1109.71 297.104 1110.34 297.091 1110.72 296.692L1116.95 290.197C1117.33 289.799 1117.32 289.165 1116.92 288.783C1116.52 288.401 1115.89 288.414 1115.51 288.813L1109.97 294.586L1104.2 289.048C1103.8 288.666 1103.17 288.679 1102.78 289.078C1102.4 289.476 1102.41 290.109 1102.81 290.492L1109.31 296.722ZM1108 248.021L1109 296.021L1111 295.979L1110 247.979L1108 248.021Z" fill="black"/>
<path d="M1388.29 301.707C1388.68 302.098 1389.32 302.098 1389.71 301.707L1396.07 295.343C1396.46 294.953 1396.46 294.319 1396.07 293.929C1395.68 293.538 1395.05 293.538 1394.66 293.929L1389 299.586L1383.34 293.929C1382.95 293.538 1382.32 293.538 1381.93 293.929C1381.54 294.319 1381.54 294.953 1381.93 295.343L1388.29 301.707ZM1388 247V301H1390V247H1388Z" fill="black"/>
<path d="M223.707 468.707C224.098 468.317 224.098 467.683 223.707 467.293L217.343 460.929C216.953 460.538 216.319 460.538 215.929 460.929C215.538 461.319 215.538 461.953 215.929 462.343L221.586 468L215.929 473.657C215.538 474.047 215.538 474.681 215.929 475.071C216.319 475.462 216.953 475.462 217.343 475.071L223.707 468.707ZM187 469L223 469L223 467L187 467L187 469Z" fill="black"/>
<path d="M573.707 471.707C574.098 471.317 574.098 470.683 573.707 470.293L567.343 463.929C566.953 463.538 566.319 463.538 565.929 463.929C565.538 464.319 565.538 464.953 565.929 465.343L571.586 471L565.929 476.657C565.538 477.047 565.538 477.681 565.929 478.071C566.319 478.462 566.953 478.462 567.343 478.071L573.707 471.707ZM539 472H573V470H539V472Z" fill="black"/>
<ellipse cx="309.5" cy="468.5" rx="86.5" ry="34.5" fill="#D9D9D9"/>
<path d="M248.364 472H243.435V457.455H248.463C249.907 457.455 251.148 457.746 252.185 458.328C253.226 458.906 254.027 459.737 254.585 460.821C255.144 461.905 255.423 463.203 255.423 464.713C255.423 466.228 255.142 467.53 254.578 468.619C254.019 469.708 253.212 470.544 252.156 471.126C251.105 471.709 249.841 472 248.364 472ZM246.07 469.72H248.236C249.249 469.72 250.094 469.536 250.771 469.166C251.448 468.792 251.957 468.236 252.298 467.497C252.639 466.754 252.81 465.826 252.81 464.713C252.81 463.6 252.639 462.677 252.298 461.943C251.957 461.205 251.453 460.653 250.786 460.288C250.123 459.919 249.299 459.734 248.314 459.734H246.07V469.72ZM257.927 472V457.455H267.387V459.663H260.562V463.612H266.897V465.821H260.562V469.791H267.444V472H257.927ZM277.98 461.453C277.914 460.833 277.634 460.35 277.142 460.004C276.654 459.659 276.02 459.486 275.239 459.486C274.689 459.486 274.218 459.569 273.825 459.734C273.432 459.9 273.132 460.125 272.923 460.409C272.715 460.693 272.608 461.018 272.604 461.382C272.604 461.685 272.672 461.948 272.81 462.17C272.952 462.393 273.143 462.582 273.385 462.739C273.626 462.89 273.894 463.018 274.188 463.122C274.481 463.226 274.777 463.314 275.075 463.385L276.439 463.726C276.988 463.854 277.516 464.027 278.023 464.244C278.534 464.462 278.991 464.737 279.393 465.068C279.801 465.4 280.123 465.8 280.359 466.268C280.596 466.737 280.714 467.286 280.714 467.916C280.714 468.768 280.497 469.519 280.061 470.168C279.625 470.812 278.996 471.316 278.172 471.68C277.353 472.04 276.361 472.22 275.196 472.22C274.064 472.22 273.082 472.045 272.249 471.695C271.42 471.344 270.771 470.833 270.303 470.161C269.839 469.488 269.588 468.669 269.55 467.703H272.142C272.18 468.21 272.336 468.631 272.611 468.967C272.885 469.304 273.243 469.554 273.683 469.72C274.128 469.886 274.625 469.969 275.175 469.969C275.748 469.969 276.25 469.884 276.68 469.713C277.116 469.538 277.457 469.296 277.703 468.989C277.949 468.676 278.075 468.312 278.08 467.895C278.075 467.516 277.964 467.204 277.746 466.957C277.528 466.706 277.223 466.498 276.83 466.332C276.441 466.162 275.987 466.01 275.466 465.878L273.811 465.452C272.613 465.144 271.666 464.678 270.97 464.053C270.279 463.423 269.933 462.587 269.933 461.545C269.933 460.688 270.165 459.938 270.629 459.294C271.098 458.65 271.735 458.151 272.54 457.795C273.345 457.436 274.256 457.256 275.274 457.256C276.306 457.256 277.211 457.436 277.987 457.795C278.768 458.151 279.382 458.645 279.827 459.28C280.272 459.91 280.501 460.634 280.516 461.453H277.98ZM295.514 462.362H292.858C292.782 461.927 292.642 461.541 292.439 461.205C292.235 460.864 291.982 460.575 291.679 460.338C291.376 460.101 291.03 459.924 290.642 459.805C290.258 459.682 289.844 459.621 289.399 459.621C288.608 459.621 287.907 459.82 287.297 460.217C286.686 460.61 286.208 461.188 285.862 461.95C285.516 462.708 285.343 463.634 285.343 464.727C285.343 465.84 285.516 466.777 285.862 467.54C286.212 468.297 286.69 468.87 287.297 469.259C287.907 469.642 288.606 469.834 289.392 469.834C289.827 469.834 290.234 469.777 290.613 469.663C290.997 469.545 291.34 469.372 291.643 469.145C291.951 468.918 292.209 468.638 292.417 468.307C292.63 467.975 292.777 467.597 292.858 467.17L295.514 467.185C295.414 467.876 295.199 468.525 294.868 469.131C294.541 469.737 294.112 470.272 293.582 470.736C293.052 471.195 292.431 471.555 291.721 471.815C291.011 472.071 290.223 472.199 289.356 472.199C288.078 472.199 286.937 471.903 285.933 471.311C284.929 470.719 284.138 469.865 283.561 468.747C282.983 467.63 282.694 466.29 282.694 464.727C282.694 463.16 282.985 461.82 283.568 460.707C284.15 459.59 284.943 458.735 285.947 458.143C286.951 457.552 288.087 457.256 289.356 457.256C290.166 457.256 290.919 457.369 291.615 457.597C292.311 457.824 292.931 458.158 293.475 458.598C294.02 459.034 294.467 459.569 294.818 460.203C295.173 460.833 295.405 461.553 295.514 462.362ZM297.927 472V457.455H303.381C304.499 457.455 305.436 457.649 306.194 458.037C306.956 458.425 307.531 458.97 307.92 459.67C308.313 460.366 308.509 461.179 308.509 462.107C308.509 463.039 308.31 463.849 307.913 464.536C307.52 465.217 306.94 465.745 306.173 466.119C305.406 466.489 304.463 466.673 303.346 466.673H299.461V464.486H302.991C303.644 464.486 304.179 464.396 304.596 464.216C305.013 464.031 305.32 463.764 305.519 463.413C305.723 463.058 305.825 462.623 305.825 462.107C305.825 461.59 305.723 461.15 305.519 460.786C305.316 460.416 305.005 460.137 304.589 459.947C304.172 459.753 303.635 459.656 302.977 459.656H300.562V472H297.927ZM305.441 465.409L309.042 472H306.102L302.565 465.409H305.441ZM313.57 457.455V472H310.935V457.455H313.57ZM316.423 472V457.455H321.877C322.995 457.455 323.932 457.663 324.69 458.08C325.452 458.496 326.028 459.069 326.416 459.798C326.809 460.523 327.005 461.347 327.005 462.27C327.005 463.203 326.809 464.031 326.416 464.756C326.023 465.48 325.443 466.051 324.676 466.467C323.909 466.879 322.964 467.085 321.842 467.085H318.227V464.919H321.487C322.14 464.919 322.675 464.805 323.092 464.578C323.509 464.351 323.816 464.038 324.015 463.641C324.219 463.243 324.321 462.786 324.321 462.27C324.321 461.754 324.219 461.299 324.015 460.906C323.816 460.513 323.506 460.208 323.085 459.99C322.668 459.768 322.131 459.656 321.473 459.656H319.058V472H316.423ZM328.655 459.663V457.455H340.26V459.663H335.764V472H333.151V459.663H328.655ZM345.132 457.455V472H342.497V457.455H345.132ZM360.983 464.727C360.983 466.295 360.689 467.637 360.102 468.754C359.52 469.867 358.724 470.719 357.716 471.311C356.712 471.903 355.573 472.199 354.299 472.199C353.026 472.199 351.885 471.903 350.876 471.311C349.872 470.714 349.077 469.86 348.49 468.747C347.907 467.63 347.616 466.29 347.616 464.727C347.616 463.16 347.907 461.82 348.49 460.707C349.077 459.59 349.872 458.735 350.876 458.143C351.885 457.552 353.026 457.256 354.299 457.256C355.573 457.256 356.712 457.552 357.716 458.143C358.724 458.735 359.52 459.59 360.102 460.707C360.689 461.82 360.983 463.16 360.983 464.727ZM358.333 464.727C358.333 463.624 358.161 462.694 357.815 461.936C357.474 461.174 357.001 460.598 356.395 460.21C355.788 459.817 355.09 459.621 354.299 459.621C353.509 459.621 352.81 459.817 352.204 460.21C351.598 460.598 351.122 461.174 350.777 461.936C350.436 462.694 350.265 463.624 350.265 464.727C350.265 465.83 350.436 466.763 350.777 467.526C351.122 468.283 351.598 468.858 352.204 469.251C352.81 469.64 353.509 469.834 354.299 469.834C355.09 469.834 355.788 469.64 356.395 469.251C357.001 468.858 357.474 468.283 357.815 467.526C358.161 466.763 358.333 465.83 358.333 464.727ZM375.427 457.455V472H373.083L366.229 462.092H366.109V472H363.474V457.455H365.832L372.678 467.369H372.806V457.455H375.427Z" fill="black"/>
<line x1="540" y1="364" x2="540" y2="471" stroke="black" stroke-width="2"/>
<ellipse cx="659.5" cy="468.5" rx="86.5" ry="34.5" fill="#D9D9D9"/>
<path d="M602.364 472H597.435V457.455H602.463C603.907 457.455 605.148 457.746 606.185 458.328C607.226 458.906 608.027 459.737 608.585 460.821C609.144 461.905 609.423 463.203 609.423 464.713C609.423 466.228 609.142 467.53 608.578 468.619C608.019 469.708 607.212 470.544 606.156 471.126C605.105 471.709 603.841 472 602.364 472ZM600.07 469.72H602.236C603.249 469.72 604.094 469.536 604.771 469.166C605.448 468.792 605.957 468.236 606.298 467.497C606.639 466.754 606.81 465.826 606.81 464.713C606.81 463.6 606.639 462.677 606.298 461.943C605.957 461.205 605.453 460.653 604.786 460.288C604.123 459.919 603.299 459.734 602.314 459.734H600.07V469.72ZM611.927 472V457.455H621.387V459.663H614.562V463.612H620.897V465.821H614.562V469.791H621.444V472H611.927ZM631.98 461.453C631.914 460.833 631.634 460.35 631.142 460.004C630.654 459.659 630.02 459.486 629.239 459.486C628.689 459.486 628.218 459.569 627.825 459.734C627.432 459.9 627.132 460.125 626.923 460.409C626.715 460.693 626.608 461.018 626.604 461.382C626.604 461.685 626.672 461.948 626.81 462.17C626.952 462.393 627.143 462.582 627.385 462.739C627.626 462.89 627.894 463.018 628.188 463.122C628.481 463.226 628.777 463.314 629.075 463.385L630.439 463.726C630.988 463.854 631.516 464.027 632.023 464.244C632.534 464.462 632.991 464.737 633.393 465.068C633.801 465.4 634.123 465.8 634.359 466.268C634.596 466.737 634.714 467.286 634.714 467.916C634.714 468.768 634.497 469.519 634.061 470.168C633.625 470.812 632.996 471.316 632.172 471.68C631.353 472.04 630.361 472.22 629.196 472.22C628.064 472.22 627.082 472.045 626.249 471.695C625.42 471.344 624.771 470.833 624.303 470.161C623.839 469.488 623.588 468.669 623.55 467.703H626.142C626.18 468.21 626.336 468.631 626.611 468.967C626.885 469.304 627.243 469.554 627.683 469.72C628.128 469.886 628.625 469.969 629.175 469.969C629.748 469.969 630.25 469.884 630.68 469.713C631.116 469.538 631.457 469.296 631.703 468.989C631.949 468.676 632.075 468.312 632.08 467.895C632.075 467.516 631.964 467.204 631.746 466.957C631.528 466.706 631.223 466.498 630.83 466.332C630.441 466.162 629.987 466.01 629.466 465.878L627.811 465.452C626.613 465.144 625.666 464.678 624.97 464.053C624.279 463.423 623.933 462.587 623.933 461.545C623.933 460.688 624.165 459.938 624.629 459.294C625.098 458.65 625.735 458.151 626.54 457.795C627.345 457.436 628.256 457.256 629.274 457.256C630.306 457.256 631.211 457.436 631.987 457.795C632.768 458.151 633.382 458.645 633.827 459.28C634.272 459.91 634.501 460.634 634.516 461.453H631.98ZM649.514 462.362H646.858C646.782 461.927 646.642 461.541 646.439 461.205C646.235 460.864 645.982 460.575 645.679 460.338C645.376 460.101 645.03 459.924 644.642 459.805C644.258 459.682 643.844 459.621 643.399 459.621C642.608 459.621 641.907 459.82 641.297 460.217C640.686 460.61 640.208 461.188 639.862 461.95C639.516 462.708 639.343 463.634 639.343 464.727C639.343 465.84 639.516 466.777 639.862 467.54C640.212 468.297 640.69 468.87 641.297 469.259C641.907 469.642 642.606 469.834 643.392 469.834C643.827 469.834 644.234 469.777 644.613 469.663C644.997 469.545 645.34 469.372 645.643 469.145C645.951 468.918 646.209 468.638 646.417 468.307C646.63 467.975 646.777 467.597 646.858 467.17L649.514 467.185C649.414 467.876 649.199 468.525 648.868 469.131C648.541 469.737 648.112 470.272 647.582 470.736C647.052 471.195 646.431 471.555 645.721 471.815C645.011 472.071 644.223 472.199 643.356 472.199C642.078 472.199 640.937 471.903 639.933 471.311C638.929 470.719 638.138 469.865 637.561 468.747C636.983 467.63 636.694 466.29 636.694 464.727C636.694 463.16 636.985 461.82 637.568 460.707C638.15 459.59 638.943 458.735 639.947 458.143C640.951 457.552 642.087 457.256 643.356 457.256C644.166 457.256 644.919 457.369 645.615 457.597C646.311 457.824 646.931 458.158 647.475 458.598C648.02 459.034 648.467 459.569 648.818 460.203C649.173 460.833 649.405 461.553 649.514 462.362ZM651.927 472V457.455H657.381C658.499 457.455 659.436 457.649 660.194 458.037C660.956 458.425 661.531 458.97 661.92 459.67C662.313 460.366 662.509 461.179 662.509 462.107C662.509 463.039 662.31 463.849 661.913 464.536C661.52 465.217 660.94 465.745 660.173 466.119C659.406 466.489 658.463 466.673 657.346 466.673H653.461V464.486H656.991C657.644 464.486 658.179 464.396 658.596 464.216C659.013 464.031 659.32 463.764 659.519 463.413C659.723 463.058 659.825 462.623 659.825 462.107C659.825 461.59 659.723 461.15 659.519 460.786C659.316 460.416 659.005 460.137 658.589 459.947C658.172 459.753 657.635 459.656 656.977 459.656H654.562V472H651.927ZM659.441 465.409L663.042 472H660.102L656.565 465.409H659.441ZM667.57 457.455V472H664.935V457.455H667.57ZM670.423 472V457.455H675.877C676.995 457.455 677.932 457.663 678.69 458.08C679.452 458.496 680.028 459.069 680.416 459.798C680.809 460.523 681.005 461.347 681.005 462.27C681.005 463.203 680.809 464.031 680.416 464.756C680.023 465.48 679.443 466.051 678.676 466.467C677.909 466.879 676.964 467.085 675.842 467.085H672.227V464.919H675.487C676.14 464.919 676.675 464.805 677.092 464.578C677.509 464.351 677.816 464.038 678.015 463.641C678.219 463.243 678.321 462.786 678.321 462.27C678.321 461.754 678.219 461.299 678.015 460.906C677.816 460.513 677.506 460.208 677.085 459.99C676.668 459.768 676.131 459.656 675.473 459.656H673.058V472H670.423ZM682.655 459.663V457.455H694.26V459.663H689.764V472H687.151V459.663H682.655ZM699.132 457.455V472H696.497V457.455H699.132ZM714.983 464.727C714.983 466.295 714.689 467.637 714.102 468.754C713.52 469.867 712.724 470.719 711.716 471.311C710.712 471.903 709.573 472.199 708.299 472.199C707.026 472.199 705.885 471.903 704.876 471.311C703.872 470.714 703.077 469.86 702.49 468.747C701.907 467.63 701.616 466.29 701.616 464.727C701.616 463.16 701.907 461.82 702.49 460.707C703.077 459.59 703.872 458.735 704.876 458.143C705.885 457.552 707.026 457.256 708.299 457.256C709.573 457.256 710.712 457.552 711.716 458.143C712.724 458.735 713.52 459.59 714.102 460.707C714.689 461.82 714.983 463.16 714.983 464.727ZM712.333 464.727C712.333 463.624 712.161 462.694 711.815 461.936C711.474 461.174 711.001 460.598 710.395 460.21C709.788 459.817 709.09 459.621 708.299 459.621C707.509 459.621 706.81 459.817 706.204 460.21C705.598 460.598 705.122 461.174 704.777 461.936C704.436 462.694 704.265 463.624 704.265 464.727C704.265 465.83 704.436 466.763 704.777 467.526C705.122 468.283 705.598 468.858 706.204 469.251C706.81 469.64 707.509 469.834 708.299 469.834C709.09 469.834 709.788 469.64 710.395 469.251C711.001 468.858 711.474 468.283 711.815 467.526C712.161 466.763 712.333 465.83 712.333 464.727ZM729.427 457.455V472H727.083L720.229 462.092H720.109V472H717.474V457.455H719.832L726.678 467.369H726.806V457.455H729.427Z" fill="black"/>
<defs>
<filter id="filter0_d_604051_1771" x="822" y="173" width="10" height="84" filterUnits="userSpaceOnUse" color-interpolation-filters="sRGB">
<feFlood flood-opacity="0" result="BackgroundImageFix"/>
<feColorMatrix in="SourceAlpha" type="matrix" values="0 0 0 0 0 0 0 0 0 0 0 0 0 0 0 0 0 0 127 0" result="hardAlpha"/>
<feOffset dy="4"/>
<feGaussianBlur stdDeviation="2"/>
<feComposite in2="hardAlpha" operator="out"/>
<feColorMatrix type="matrix" values="0 0 0 0 0 0 0 0 0 0 0 0 0 0 0 0 0 0 0.25 0"/>
<feBlend mode="normal" in2="BackgroundImageFix" result="effect1_dropShadow_604051_1771"/>
<feBlend mode="normal" in="SourceGraphic" in2="effect1_dropShadow_604051_1771" result="shape"/>
</filter>
</defs>
</svg>
